<svg width="19" height="17" viewBox="0 0 19 17" fill="none" xmlns="http://www.w3.org/2000/svg">
<path d="M10.0182 8.84616V13.7038C10.0182 13.8418 9.96362 13.9742 9.86644 14.0718C9.76925 14.1694 9.63744 14.2242 9.5 14.2242C9.36256 14.2242 9.23075 14.1694 9.13357 14.0718C9.03638 13.9742 8.98179 13.8418 8.98179 13.7038V8.84616C8.98179 8.70813 9.03638 8.57575 9.13357 8.47815C9.23075 8.38054 9.36256 8.32571 9.5 8.32571C9.63744 8.32571 9.76925 8.38054 9.86644 8.47815C9.96362 8.57575 10.0182 8.70813 10.0182 8.84616ZM18.9903 6.92481L17.7915 15.9461C17.7528 16.2377 17.61 16.5052 17.3896 16.6991C17.1693 16.8929 16.8864 16.9998 16.5935 17H2.40649C2.11358 16.9998 1.83069 16.8929 1.61036 16.6991C1.39003 16.5052 1.24725 16.2377 1.20855 15.9461L0.0106037 6.92481C-0.0121557 6.75335 0.00181936 6.57898 0.0515931 6.41338C0.101367 6.24778 0.185791 6.09478 0.299213 5.9646C0.412635 5.83443 0.552438 5.73009 0.709262 5.65858C0.866086 5.58706 1.03631 5.55002 1.20855 5.54993H4.42839L9.10961 0.176207C9.15824 0.120827 9.21805 0.0764734 9.28506 0.0460928C9.35207 0.0157121 9.42475 0 9.49827 0C9.5718 0 9.64448 0.0157121 9.71149 0.0460928C9.7785 0.0764734 9.8383 0.120827 9.88693 0.176207L14.5682 5.55427H17.7915C17.9637 5.55436 18.1339 5.5914 18.2907 5.66292C18.4476 5.73443 18.5874 5.83877 18.7008 5.96894C18.8142 6.09911 18.8986 6.25212 18.9484 6.41772C18.9982 6.58332 19.0122 6.75768 18.9894 6.92915L18.9903 6.92481ZM5.80512 5.54993H13.1949L9.5 1.30907L5.80512 5.54993ZM17.921 6.64983C17.9048 6.63133 17.8849 6.6165 17.8626 6.60632C17.8402 6.59615 17.816 6.59088 17.7915 6.59085H1.20855C1.18387 6.59076 1.15947 6.59597 1.13697 6.60615C1.11448 6.61632 1.09441 6.63122 1.07813 6.64983C1.06175 6.66832 1.0495 6.69012 1.0422 6.71376C1.0349 6.7374 1.03272 6.76233 1.03581 6.78689L2.23289 15.8082C2.23856 15.85 2.25924 15.8883 2.29104 15.9159C2.32284 15.9436 2.36358 15.9586 2.40563 15.9582H16.5935C16.6356 15.9586 16.6763 15.9436 16.7081 15.9159C16.7399 15.8883 16.7606 15.85 16.7663 15.8082L17.9642 6.78689C17.9676 6.76226 17.9655 6.73717 17.958 6.71347C17.9505 6.68976 17.9379 6.66802 17.921 6.64983ZM14.1121 8.32571C14.0444 8.31887 13.976 8.3255 13.9109 8.34521C13.8457 8.36492 13.785 8.39732 13.7323 8.44058C13.6796 8.48383 13.636 8.53709 13.6038 8.5973C13.5716 8.65752 13.5515 8.72351 13.5447 8.79152L13.061 13.6491C13.0535 13.7175 13.0595 13.7868 13.0788 13.8528C13.0981 13.9189 13.1303 13.9804 13.1734 14.0339C13.2165 14.0874 13.2698 14.1317 13.3301 14.1644C13.3904 14.1971 13.4566 14.2174 13.5248 14.2242H13.5775C13.7064 14.2249 13.8309 14.1772 13.9268 14.0906C14.0226 14.004 14.0828 13.8846 14.0957 13.7558L14.5794 8.89821C14.5865 8.82973 14.5801 8.76051 14.5604 8.69456C14.5407 8.6286 14.5082 8.56722 14.4648 8.51397C14.4213 8.46073 14.3678 8.41667 14.3072 8.38435C14.2467 8.35203 14.1804 8.3321 14.1121 8.32571ZM5.45533 8.79412C5.44158 8.65677 5.37408 8.53054 5.26766 8.44318C5.16124 8.35583 5.02463 8.3145 4.88788 8.32831C4.75113 8.34211 4.62544 8.40991 4.53846 8.51679C4.45148 8.62366 4.41033 8.76087 4.42408 8.89821L4.90774 13.7558C4.92063 13.8846 4.98087 14.004 5.07669 14.0906C5.17252 14.1772 5.29705 14.2249 5.42596 14.2242H5.47865C5.54636 14.2174 5.61207 14.1972 5.67202 14.1649C5.73198 14.1326 5.785 14.0887 5.82807 14.0357C5.87114 13.9828 5.90341 13.9219 5.92303 13.8565C5.94266 13.791 5.94925 13.7223 5.94245 13.6543L5.45533 8.79412Z" fill="black"/>
</svg>
