<svg width="15" height="15" viewBox="0 0 15 15" fill="none" xmlns="http://www.w3.org/2000/svg">
<g clip-path="url(#clip0_228_460)">
<path d="M5.5 15C5.36739 15 5.24021 14.9436 5.14645 14.8431C5.05268 14.7426 5 14.6064 5 14.4643C5 14.3222 5.05268 14.1859 5.14645 14.0855C5.24021 13.985 5.36739 13.9286 5.5 13.9286H12C12.5304 13.9286 13.0391 13.7028 13.4142 13.3009C13.7893 12.8991 14 12.354 14 11.7857V3.21429C14 2.64596 13.7893 2.10092 13.4142 1.69906C13.0391 1.29719 12.5304 1.07143 12 1.07143H5.5C5.36739 1.07143 5.24021 1.01499 5.14645 0.914521C5.05268 0.814055 5 0.677795 5 0.535714C5 0.393634 5.05268 0.257373 5.14645 0.156907C5.24021 0.0564413 5.36739 0 5.5 0H12C12.7956 0 13.5587 0.338647 14.1213 0.941443C14.6839 1.54424 15 2.3618 15 3.21429V11.7857C15 12.6382 14.6839 13.4558 14.1213 14.0586C13.5587 14.6614 12.7956 15 12 15H5.5ZM5.646 3.37071C5.69245 3.32082 5.74762 3.28124 5.80837 3.25424C5.86911 3.22723 5.93423 3.21333 6 3.21333C6.06577 3.21333 6.13089 3.22723 6.19163 3.25424C6.25238 3.28124 6.30755 3.32082 6.354 3.37071L9.854 7.12071C9.90056 7.17048 9.93751 7.22959 9.96271 7.29468C9.98792 7.35976 10.0009 7.42953 10.0009 7.5C10.0009 7.57046 9.98792 7.64024 9.96271 7.70532C9.93751 7.77041 9.90056 7.82952 9.854 7.87929L6.354 11.6293C6.26011 11.7299 6.13278 11.7864 6 11.7864C5.86722 11.7864 5.73989 11.7299 5.646 11.6293C5.55211 11.5287 5.49937 11.3923 5.49937 11.25C5.49937 11.1077 5.55211 10.9713 5.646 10.8707L8.293 8.03571H-0.5C-0.632608 8.03571 -0.759785 7.97927 -0.853553 7.87881C-0.947322 7.77834 -1 7.64208 -1 7.5C-1 7.35792 -0.947322 7.22166 -0.853553 7.12119C-0.759785 7.02073 -0.632608 6.96429 -0.5 6.96429H8.293L5.646 4.12929C5.59944 4.07952 5.56249 4.02041 5.53729 3.95532C5.51208 3.89024 5.49911 3.82046 5.49911 3.75C5.49911 3.67953 5.51208 3.60976 5.53729 3.54468C5.56249 3.47959 5.59944 3.42048 5.646 3.37071Z" fill="black"/>
</g>
<defs>
<clipPath id="clip0_228_460">
<rect width="15" height="15" fill="white"/>
</clipPath>
</defs>
</svg>
